<?xml version="1.0" encoding="utf-8"?>
<!-- Generator: Adobe Illustrator 24.0.1, SVG Export Plug-In . SVG Version: 6.00 Build 0)  -->
<svg version="1.1" id="Camada_1" xmlns="http://www.w3.org/2000/svg" xmlns:xlink="http://www.w3.org/1999/xlink" x="0px" y="0px"
	 viewBox="0 0 40 40" style="enable-background:new 0 0 40 40;" xml:space="preserve">
<style type="text/css">
	.st0{fill:#FFFFFF;}
</style>
<polygon class="st0" points="29.1,15.4 25.7,24.6 23.3,24.6 26.7,15.4 "/>
<path class="st0" d="M35,20c0,8.3-6.7,15-15,15h-0.5l3.1-8.4h4.2c0.8,0,1.5-0.5,1.8-1.3l3.4-9.3c0.4-1-0.1-2-1.1-2.4
	c-0.2-0.1-0.4-0.1-0.6-0.1h-6.2l-7.7,21.1c-8.1-2-13-10.1-11-18.1c1.3-5.2,5.3-9.4,10.5-10.9l-7.6,21h3.2l4.1-11.1H18l-4.1,11.1H17
	L20.9,16c0.3-1-0.2-2-1.1-2.4c-0.1-0.1-0.3-0.1-0.4-0.1l0,0h-3.1L19.3,5c0.2,0,0.4,0,0.7,0C28.3,5,35,11.7,35,20z"/>
</svg>
